<?xml version="1.0" standalone="no"?>
<!DOCTYPE svg PUBLIC "-//W3C//DTD SVG 20010904//EN"
 "http://www.w3.org/TR/2001/REC-SVG-20010904/DTD/svg10.dtd">
<svg version="1.0" xmlns="http://www.w3.org/2000/svg"
 width="640.000000pt" height="640.000000pt" viewBox="0 0 640.000000 640.000000"
 preserveAspectRatio="xMidYMid meet">
<metadata>
Created by potrace 1.14, written by Peter Selinger 2001-2017
</metadata>
<g transform="translate(0.000000,640.000000) scale(0.100000,-0.100000)"
fill="#000000" stroke="none">
<path d="M38 5753 c-3 -7 -2 -743 1 -780 1 -13 581 373 581 387 0 3 -17 18
-37 31 -124 82 -511 344 -525 356 -9 8 -18 11 -20 6z"/>
<path d="M29 4556 c0 -17 -1 -887 -2 -1932 l-2 -1902 95 -1 c52 0 102 -1 110
-1 181 -3 410 5 411 14 3 34 3 3814 1 3832 -4 20 -8 20 -308 20 l-304 0 -1
-30z"/>
<path d="M1106 4581 c-2 -3 -2 -253 0 -556 8 -1363 15 -2581 17 -2925 l2 -375
272 -2 273 -1 2 1401 c3 1137 5 1393 15 1352 7 -27 31 -120 53 -205 23 -85 43
-163 45 -173 2 -10 14 -52 25 -95 12 -42 23 -84 25 -92 2 -8 17 -69 34 -135
74 -284 84 -321 86 -335 2 -8 4 -15 5 -15 1 0 3 -7 5 -15 1 -8 17 -69 34 -135
18 -66 34 -127 36 -135 4 -16 43 -164 95 -365 17 -66 33 -127 35 -135 2 -8 4
-16 5 -17 3 -3 3 -3 15 -58 4 -22 10 -44 11 -50 7 -25 87 -327 129 -490 25
-99 52 -201 60 -227 8 -27 11 -48 8 -48 -3 0 0 -6 6 -14 8 -10 40 -14 114 -15
139 -1 120 -1 330 0 166 1 187 3 188 18 0 22 1 3778 0 3817 l-1 31 -280 -1
c-184 0 -281 -4 -283 -11 -2 -5 -3 -517 -3 -1137 1 -619 -2 -1124 -5 -1122 -4
2 -9 16 -12 31 -3 16 -10 46 -16 68 -6 22 -14 58 -20 80 -15 65 -61 237 -71
270 -5 17 -12 41 -14 55 -3 14 -15 61 -26 105 -12 44 -22 87 -24 95 -2 8 -18
69 -36 135 -17 66 -33 127 -35 135 -1 8 -8 35 -15 60 -7 25 -14 52 -15 60 -2
8 -15 58 -29 110 -31 119 -145 560 -150 580 -2 8 -14 53 -26 100 -12 47 -23
92 -25 100 -2 8 -16 60 -30 115 -14 55 -30 116 -35 135 l-10 36 -380 0 c-210
0 -383 -2 -384 -5z"/>
<path d="M3499 4546 c0 -23 -1 -892 -2 -1932 l-2 -1892 280 -1 c154 0 287 -1
295 -1 75 -2 541 10 563 14 29 6 60 13 105 21 50 10 152 46 198 71 241 128
373 342 412 669 9 75 9 2254 0 2315 -14 93 -18 113 -39 188 -22 82 -82 214
-111 246 -10 11 -18 23 -18 27 0 8 -93 103 -134 137 -15 13 -49 35 -74 49 -26
14 -51 29 -57 33 -12 8 -118 46 -135 48 -3 0 -17 5 -32 11 -15 6 -49 13 -75
17 -27 3 -57 9 -68 11 -11 3 -264 7 -562 8 l-543 2 -1 -41z m1006 -520 c43 -6
169 -65 140 -66 -5 0 0 -7 11 -15 22 -15 58 -89 71 -146 4 -19 8 -536 8 -1149
0 -1069 -1 -1118 -19 -1177 -11 -35 -23 -63 -28 -63 -5 0 -7 -4 -4 -9 10 -15
-90 -96 -135 -111 -57 -17 -426 -22 -432 -6 -6 20 -2 2731 5 2741 7 12 307 13
383 1z"/>
<path d="M5749 4546 c0 -51 0 -3150 1 -3537 l0 -286 35 -1 c19 -1 41 -2 48 -2
67 0 200 0 232 1 22 1 97 1 168 1 111 0 127 2 128 17 1 21 1 3800 0 3827 -1
20 -4 21 -306 21 l-305 0 -1 -41z"/>
</g>
</svg>
