<svg width="40" height="32" viewBox="0 0 40 32" fill="none" xmlns="http://www.w3.org/2000/svg">
<path fill-rule="evenodd" clip-rule="evenodd" d="M3.92419 2.50195L0.232813 5.0039V0L3.92419 2.50195ZM0.174805 7.33329H4.01171V31.49H0.174805V7.33329ZM6.88922 7.33329H11.6848L15.4053 21.7123V7.33329H18.9513V31.49H15.0271L10.4352 13.8614V31.49H7.03398L6.88922 7.33329ZM27.6711 7.33329H21.8579V31.49H27.6711C31.595 31.49 33.4843 29.3907 33.4843 25.5084V13.315C33.4843 9.43268 31.4787 7.33329 27.6711 7.33329ZM29.6183 25.6809C29.6183 27.4064 28.8919 28.0391 27.6711 28.0391H25.7239V10.7843H27.6711C28.8919 10.7843 29.6183 11.417 29.6183 13.1425V25.6809ZM35.9261 7.33329H39.7623V31.49H35.9261V7.33329Z" fill="#FF4E4E"/>
</svg>
